# xmcd CD database file
#
# Track frame offsets:
#	150
#	57507
#	101849
#	159880
#	192474
#	256806
#
# Disc length: 3927 seconds
#
# Revision: 0
# Processed by: cddbd v1.5.1PL2 Copyright (c) Steve Scherf et al.
# Submitted via: CDex 1.51
#
DISCID=4c0f5506
DTITLE=Smietana Jaroslaw  - Autumn Suite
DYEAR=2006
DGENRE=Jazz
TTITLE0=Birth
TTITLE1=Okapi
TTITLE2=Children
TTITLE3=Dance
TTITLE4=Message to Prez
TTITLE5=My love and inspiration
EXTD=YEAR: 2006
EXTT0=
EXTT1=
EXTT2=
EXTT3=
EXTT4=
EXTT5=
PLAYORDER=
